#!OML:ASF E:\emotionWalksFemale\Project 1\Capture day 1\Session 1\Female1.ASF
:FULLY-SPECIFIED
:DEGREES
447
root 9.26555 15.3791 -2.60763 -181.481 -2.73048 -174.697
lowerback 6.56075 1.42295 2.84311
upperback -3.64733 2.16383 0.522964
thorax -7.42784 0.908288 -1.32021
lowerneck -6.36322 -3.2846 -6.83086
upperneck 19.2316 -6.15049 7.71871
head 7.35982 -3.20876 3.09447
rclavicle 1.14301e-014 1.47101e-014
rhumerus -35.6194 9.11714 -88.7977
rradius 29.0998
rwrist 23.6294
rhand 1.07385 -55.9353
rfingers 7.12502
rthumb 26.6185 -84.0841
lclavicle 1.14301e-014 1.47101e-014
lhumerus -43.6566 0.288903 84.4842
lradius 34.7634
lwrist -16.5471
lhand -5.37838 -34.1754
lfingers 7.12502
lthumb 20.4298 -5.23016
rfemur -0.311677 14.3229 37.3527
rtibia 17.7841
rfoot -13.9868 -28.857
rtoes 12.1852
lfemur -25.2975 -1.34345 -15.5712
ltibia 69.9941
lfoot -11.9031 7.4135
ltoes -23.8118
448
root 9.27504 15.3647 -2.72569 -181.47 -2.63686 -174.592
lowerback 6.53417 1.52244 3.04142
upperback -3.70949 2.31248 0.501095
thorax -7.46483 0.967977 -1.47272
lowerneck -6.20641 -3.4363 -7.08617
upperneck 19.4866 -6.43381 7.86957
head 7.44989 -3.3695 3.16334
rclavicle 6.55989e-015 -6.75868e-015
rhumerus -35.3927 8.9966 -88.734
rradius 29.0752
rwrist 24.0059
rhand 0.649686 -55.4725
rfingers 7.12502
rthumb 26.2125 -83.6823
lclavicle 6.55989e-015 -6.75868e-015
lhumerus -43.7252 0.219677 84.6514
lradius 35.3587
lwrist -15.5981
lhand -5.30995 -33.7503
lfingers 7.12502
lthumb 20.4956 -4.8121
rfemur 0.0171162 14.2291 37.6442
rtibia 17.9805
rfoot -14.1786 -29.0038
rtoes 11.3306
lfemur -26.2135 -1.8037 -15.6586
ltibia 68.9952
lfoot -13.5613 8.00735
ltoes -19.8377
449
root 9.28281 15.3553 -2.84167 -181.424 -2.58752 -174.542
lowerback 6.5468 1.61769 3.21555
upperback -3.77489 2.45361 0.448984
thorax -7.52699 1.02398 -1.64393
lowerneck -5.85547 -3.48847 -7.27427
upperneck 19.3279 -6.56596 8.16642
head 7.36063 -3.43718 3.2868
rclavicle -1.46604e-014 -4.37326e-015
rhumerus -35.2205 8.51814 -88.57
rradius 29.2284
rwrist 24.6159
rhand -0.103001 -54.4803
rfingers 7.12502
rthumb 25.4917 -82.7952
lclavicle -1.46604e-014 -4.37326e-015
lhumerus -43.5298 0.0440144 84.8574
lradius 35.6149
lwrist -14.5768
lhand -5.14334 -33.5235
lfingers 7.12502
lthumb 20.6557 -4.60265
rfemur 0.461142 14.327 37.8899
rtibia 18.0344
rfoot -14.921 -29.1665
rtoes 12.5142
lfemur -27.0694 -2.30773 -15.8027
ltibia 67.842
lfoot -14.8054 8.71634
ltoes -22.0243
450
root 9.29262 15.3405 -2.96138 -181.449 -2.51416 -174.477
lowerback 6.53456 1.69786 3.31689
upperback -3.74764 2.56981 0.43514
thorax -7.48026 1.07708 -1.72865
lowerneck -6.17464 -3.66098 -7.28751
upperneck 19.6659 -6.7928 8.00794
head 7.54398 -3.55313 3.2096
rclavicle -1.48095e-014 3.97569e-016
rhumerus -34.7898 8.20968 -88.4386
rradius 29.191
rwrist 25.0594
rhand -0.51759 -53.8832
rfingers 7.12502
rthumb 25.0945 -82.2543
lclavicle -1.48095e-014 3.97569e-016
lhumerus -43.2876 -0.00994744 85.0007
lradius 35.8794
lwrist -13.7709
lhand -5.13083 -33.893
lfingers 7.12502
lthumb 20.6677 -4.97345
rfemur 1.09749 14.4485 38.201
rtibia 17.9741
rfoot -15.8515 -29.235
rtoes 14.3708
lfemur -27.7469 -2.8099 -15.9172
ltibia 66.546
lfoot -15.1884 9.7624
ltoes -23.4607
451
root 9.3035 15.3241 -3.08122 -181.465 -2.37249 -174.334
lowerback 6.44042 1.77242 3.41009
upperback -3.70683 2.6768 0.493097
thorax -7.3753 1.12886 -1.72861
lowerneck -5.67778 -3.54393 -7.47099
upperneck 19.1364 -6.65537 8.40685
head 7.28787 -3.47737 3.39429
rclavicle -5.01931e-015 1.63003e-014
rhumerus -34.3598 8.33358 -88.4134
rradius 29.247
rwrist 24.9998
rhand -0.751558 -53.679
rfingers 7.12502
rthumb 24.8703 -82.0812
lclavicle -5.01931e-015 1.63003e-014
lhumerus -43.2492 0.136255 85.0959
lradius 36.5013
lwrist -13.0404
lhand -4.84115 -34.3135
lfingers 7.12502
lthumb 20.946 -5.42441
rfemur 1.75307 14.3795 38.5585
rtibia 17.726
rfoot -16.1296 -29.1864
rtoes 14.593
lfemur -28.3888 -3.22331 -15.9219
ltibia 65.0999
lfoot -15.7724 10.9396
ltoes -25.8017
452
root 9.31043 15.3152 -3.19784 -181.387 -2.22426 -174.248
lowerback 6.39069 1.84003 3.53011
upperback -3.75281 2.77574 0.507797
thorax -7.38612 1.16961 -1.79106
lowerneck -5.5908 -3.56905 -7.42484
upperneck 19.128 -6.69042 8.33167
head 7.2688 -3.50055 3.36005
rclavicle -5.06901e-015 -1.86858e-014
rhumerus -34.2199 8.63379 -88.5024
rradius 29.6597
rwrist 24.6329
rhand -1.2778 -53.1706
rfingers 7.12502
rthumb 24.3659 -81.6416
lclavicle -5.06901e-015 -1.86858e-014
lhumerus -43.1483 0.335023 85.1363
lradius 36.877
lwrist -12.3541
lhand -4.48278 -34.5173
lfingers 7.12502
lthumb 21.2903 -5.66673
rfemur 2.41972 14.2989 38.7994
rtibia 17.2532
rfoot -15.9532 -29.1423
rtoes 13.5102
lfemur -29.0472 -3.71414 -15.9489
ltibia 63.4638
lfoot -16.6549 11.9391
ltoes -27.6519
